<?xml version="1.0" encoding="UTF-8"?>
<svg id="Layer_1" xmlns="http://www.w3.org/2000/svg" version="1.1" viewBox="0 0 800 800">
  <!-- Generator: Adobe Illustrator 30.3.0, SVG Export Plug-In . SVG Version: 2.1.3 Build 182)  -->
  <defs>
    <style>
      .st0 {
        fill: #ea1c24;
      }
    </style>
  </defs>
  <path class="st0" d="M103.2,379.1V118.6c0-3.7,1.9-5.6,5.6-5.6h150.9c4,0,5.9,2,5.9,6.1v182.5c1.7-.6,2.7-.9,3.7-1.4,42.3-22,84.6-44,126.8-66.3,2.7-1.4,4.8-1.4,7.5,0,41.2,21.5,82.3,42.9,123.5,64.4l6.7,3.3c0-2.3.2-4.1.2-5.8V118.6c0-3.8,1.9-5.7,5.6-5.7h151.7c4.1,0,5.3,1.2,5.3,5.3v263c0,4.1,1.4,6.3,4.9,8.2,27.7,14.2,55.1,28.6,82.7,43,1.1.6,2.1,1.4,3.1,3.1h-85.2c-3.7,0-5.6,1.9-5.6,5.7v177.8c0,4.3-2.2,6.4-6.6,6.4h-150.1c-4,0-5.9-2-5.9-5.8v-178.1c0-3.8-2-5.8-5.8-5.8h-257c-3.7,0-5.6,1.9-5.7,5.6v178.1c0,4.1-2,6.1-6.1,6.1H109.2c-3.8,0-5.8-2-5.8-5.8v-178.6c0-4.3-1.2-5.4-5.4-5.4-26.8.2-53.7,0-80.6,0h-4.9c0-.4-.2-.6-.4-1,4.1-2.2,8-4.5,12.1-6.6,24.4-12.6,48.6-25.5,72.9-37.8,4.9-2.5,7.3-5.3,6.3-11.1h-.1Z"/>
</svg>