<?xml version="1.0" encoding="UTF-8"?>
<svg id="Layer_1" xmlns="http://www.w3.org/2000/svg" version="1.1" viewBox="0 0 800 587.2">
  <!-- Generator: Adobe Illustrator 30.3.0, SVG Export Plug-In . SVG Version: 2.1.3 Build 182)  -->
  <defs>
    <style>
      .st0 {
        fill: #ea1c24;
      }
    </style>
  </defs>
  <path class="st0" d="M159.9,270.8V60.1c0-3,1.5-4.5,4.5-4.5h122.1c3.2,0,4.8,1.6,4.8,4.9v147.6c1.4-.5,2.2-.7,3-1.1,34.2-17.8,68.4-35.6,102.6-53.6,2.2-1.1,3.9-1.1,6.1,0,33.3,17.4,66.6,34.7,99.9,52.1l5.4,2.7c0-1.9.2-3.3.2-4.7V60.1c0-3.1,1.5-4.6,4.5-4.6h122.7c3.3,0,4.3,1,4.3,4.3,0,70.9,0,141.8,0,212.7,0,3.3,1.1,5.1,4,6.6,22.4,11.5,44.6,23.1,66.9,34.8.9.5,1.7,1.1,2.5,2.5h-68.9c-3,0-4.5,1.5-4.5,4.6v143.8c0,3.5-1.8,5.2-5.3,5.2h-121.4c-3.2,0-4.8-1.6-4.8-4.7v-144.1c0-3.1-1.6-4.7-4.7-4.7h-207.9c-3,0-4.5,1.5-4.6,4.5v144.1c0,3.3-1.6,4.9-4.9,4.9h-121.7c-3.1,0-4.7-1.6-4.7-4.7v-144.5c0-3.5-1-4.4-4.4-4.4-21.7.2-43.4,0-65.2,0h-4c0-.3-.2-.5-.3-.8,3.3-1.8,6.5-3.6,9.8-5.3,19.7-10.2,39.3-20.6,59-30.6,4-2,5.9-4.3,5.1-9h0Z"/>
  <path d="M505.9,519.7c5.8,7.3,11.4,14.5,17,21.6.4,0,.7-.3,1.1-.4v-21.6h12.7c0,1.1.2,2.1.2,3.1v39.3c0,2.3-.6,3-3.1,3.3-5.7.6-9.7-1-12.9-6-3.4-5.3-7.6-10-11.5-15-.7-.9-1.5-1.7-3-2.3v23h-12.6v-45.8c4,.2,7.9.4,12.1.8h0Z"/>
  <path d="M234.3,533.5c-1.7,2.8-3.3,5.3-4.6,7.3,2.1,2.5,5.1,4.6,6.2,7.6,2.8,6.8-1.2,13.7-8.8,15.5-4.1,1-8.4,1-12.6,1.1-5.4.2-10.8,0-16.2,0-.9,0-2.6-1.3-2.6-2-.1-14.2,0-28.5,0-42.7s.2-.4.5-1.1h21c2.8,0,5.8.2,8.5.9,6.6,1.7,9.5,6.3,8.5,13.4M212.2,546.2c-3.4-.6-4.9.7-4.3,4.3.1.8-.2,1.7,0,2.4.4.8,1.2,1.8,1.8,1.8,3.4,0,6.9.3,10.2-.3,1.4-.3,3.1-2.2,3.6-3.7.7-2.2-1.2-3.6-3.3-4-2.5-.4-5-.3-8.1-.5M220.6,530.5c-3.8-.3-7.6-.7-11.4-1-.4,0-1.1,1-1.2,1.7-.2,1.5-.3,3,0,4.4.2.7,1.2,1.8,1.8,1.8,2.8,0,5.7,0,8.5-.4,3.6-.6,4.4-2.7,2.2-6.6h0Z"/>
  <path d="M684.2,547.6c3.4,6.2,9,8.6,15.5,6.8,2.5-.7,3.1-2.3,3-4.6,0-2.7-2.1-2.2-3.7-2.3h-5.2c0-2.7-.2-5.1,0-7.5,0-.7,1.4-1.8,2.1-1.8,5.5-.2,11-.2,16.5,0,.8,0,2.1,1.4,2.1,2.2.2,5.5.2,11,0,16.5,0,1.1-.8,2.5-1.7,3.1-9.5,6.5-19.7,8.1-30.3,3.1-9.5-4.5-14.5-15.1-12.4-25.3,2.3-11.3,11.1-18.9,22.7-19.6,7.8-.5,15.3,2,19.9,6.9-2.3,2.8-4.6,5.7-7,8.7-6.1-3.9-12.2-6.4-18.4-1.5-4.9,3.9-5.3,9.4-3.4,15.3h.2Z"/>
  <path d="M482.9,545c-2.3,11.7-9.7,18.9-20.9,20.6-10.4,1.6-20.7-3.3-25.5-12.5-4.2-8.1-3.8-16.3,1.1-23.9,5.1-7.9,12.9-11.3,22.1-10.9,14.7.7,24.4,11.9,23.2,26.7M448.7,535.1c-.5,1.4-1.3,2.7-1.6,4.2-2,8.8,5.9,17,14.2,14.7,5.1-1.4,8.4-5.5,8.8-11.1s-2.6-10.6-7.4-12.4c-5.2-2-9.8-.6-14,4.6Z"/>
  <path d="M91.1,565h-5v-45.6h12.5c0,4.2.2,8.4,0,12.6-.3,3.6,1.1,4.7,4.5,4.3,2.4-.2,4.8,0,7.2,0s4.6-1.5,4.6-4.4v-12.5h12.5v45.4h-12.5c0-4.4-.2-9,0-13.5,0-2.9-.9-3.9-3.7-3.7-3.1.2-6.2.2-9.3,0-2.6,0-3.4,1-3.3,3.4,0,3.4-.2,6.9,0,10.3.3,3.1-.9,4.2-3.9,3.8-1.1-.2-2.3,0-3.8,0h.1Z"/>
  <path d="M622.2,519.1c7.1.3,13.9,0,20.6,1,11.4,1.8,18.2,10.3,18.3,21.6,0,11.3-6.9,20.5-18.1,22.2-8.2,1.2-16.6,1-25.1,1.5v-46.3h4.4M631,530.5c-.3,1-.7,2.1-.7,3.1v19.9c3,0,5.4.2,7.8,0,5.5-.5,9.4-4.5,9.9-9.8.6-6.1-2-10.7-7.5-12.3-2.8-.8-5.9-.6-9.4-.8h0Z"/>
  <path d="M568.5,529.4c-1.8,0-3.4-.5-4.7,0-1.2.4-2.7,1.4-3.1,2.5-.2.7,1.2,2.4,2.2,2.9,2.2,1,4.6,1.4,6.9,2.1,2.3.7,4.6,1.3,6.9,2.2,5.5,2.2,8.9,6,8.7,12.2,0,5.8-3.3,10.8-9.2,12.8-10.7,3.8-20.5,1.6-29.6-4.9-.3-.3-.6-.7-1.1-1.3,1.9-2.3,3.7-4.7,5.8-6.7.5-.5,2.2-.2,3.2,0,4,1.2,7.9,2.9,12,3.8,2.1.5,5.1.4,5.7-2.5.6-3.1-2.4-3.5-4.5-4.1-3.5-1.1-7.1-1.9-10.5-3.1-6.8-2.5-9.6-6.2-9.6-12.3s3.5-11.4,10-13.3c8.8-2.7,17.2-1.3,25,3.7.5.3.8.8,1.3,1.4-1.6,2.4-3.1,4.8-4.9,6.9-.5.6-2.2.7-3.1.5-2.4-.7-4.7-1.8-7.3-2.7h-.1Z"/>
  <path d="M186.5,562.9c-.4.8-.8,1.9-1.4,2-3.2.2-6.5.3-9.6,0-1.1,0-2.4-1.7-3-3-2.6-5.6-1-5.1-7.6-5.2-3.1,0-6.2,0-9.3,0-2.3,0-3.3.9-4,2.8-2.1,5.5-2.2,5.5-8.3,5.5h-6.8c.3-1.1.4-1.8.6-2.4,5.8-13.6,11.6-27.3,17.2-40.9.8-2,1.7-2.8,4-2.8,9.5,0,9.5,0,13.2,8.6,5,11.7,9.9,23.5,15,35.4M163.2,537.7c-.5-.9-.9-1.8-1.8-3.5-1.8,4.6-3.3,8.3-5,12.5h10.3c-1.2-3.2-2.3-5.9-3.5-9Z"/>
  <path d="M363.2,519.1h37.4c0,3.4.2,6.4-.1,9.3,0,.7-1.5,1.8-2.4,1.9-3.5.2-7.1,0-11,0,0,1.5-.2,2.7-.2,3.9v27.6c0,2.4-.7,3.2-3.1,3.2-9.8,0-9.8.2-9.8-9.5v-22.4c0-2.1-.7-2.9-2.8-2.8h-7.9c-.7,0-1.9,0-2-.2-.4-3.1-.9-6.1-.9-9.2s1.6-1.3,2.8-1.9h0Z"/>
  <path d="M295.6,531.5v33.3h-12.6v-34.1h-13.5v-11.3h39.7c0,3.2.1,6.3-.1,9.4,0,.6-1.5,1.6-2.3,1.6-2.6.2-5.3,0-7.9,0-1.1,0-2.1.5-3.3,1.1h0Z"/>
  <path d="M249.3,565c-1.1-.7-2.6-1.3-2.6-2v-42.7c0-.2.2-.4.5-1.1,3.3,0,6.8,0,10.3,0,.7,0,1.8,1.4,1.8,2.1.1,13.8.1,27.6,0,41.4,0,.8-1.3,2.1-2.1,2.2-2.5.3-5,0-7.9,0h0Z"/>
  <path d="M423,526v38.6h-12.5v-45.3h12.5v6.7Z"/>
  <path d="M341.3,520.4c-1.8-3.7-6.9-.9-10.5-1.4-.9,0-2.6,1-3,2-4.4,10.1-8.6,20.3-13,30.7-1.9,4.4-3.6,8.6-5.6,13.3h6.9c6.2,0,6.3,0,8.5-5.6.8-2,2-2.8,4.1-2.7,3.1.2,6.2.3,9.3,0,4.1-.5,6.4,1,7.4,5,.3,1.2,1.3,3,2.1,3.1,4,.3,8.1,0,12.8,0-6.5-15.3-12.4-30.1-19.2-44.5h.2ZM329.5,546.7c1.1-2.8,2.1-5.3,3.1-7.7v-.2h0c.6-1.4,1.1-2.5,1.5-3.6.3,0,.6,0,.9,0,1.5,3.7,3,7.5,4.7,11.8h-10.3v-.2Z"/>
</svg>