<?xml version="1.0" encoding="UTF-8"?>
<svg id="Layer_1" xmlns="http://www.w3.org/2000/svg" version="1.1" viewBox="0 0 800 587.2">
  <!-- Generator: Adobe Illustrator 30.3.0, SVG Export Plug-In . SVG Version: 2.1.3 Build 182)  -->
  <defs>
    <style>
      .st0 {
        fill: #ec1c24;
      }
    </style>
  </defs>
  <polygon class="st0" points="717.6 316.5 642 277.1 642 55.5 510.5 55.5 510.5 208.6 401.9 152 293.2 208.6 293.2 55.5 161.7 55.5 161.7 277.1 86.1 316.5 161.7 316.5 161.7 469.9 293.2 469.9 293.2 316.5 510.5 316.5 510.5 469.9 642 469.9 642 316.5 717.6 316.5"/>
  <g>
    <path d="M87.9,519.3h12.7v17.1h16.3v-17.1h12.7v45.8h-12.7v-17.4h-16.3v17.4h-12.7v-45.8Z"/>
    <path d="M157.4,519h12.2l19.5,46.1h-13.6l-3.3-8.2h-17.7l-3.3,8.2h-13.3l19.4-46.1ZM168.5,547l-5.1-13-5.2,13h10.3Z"/>
    <path d="M197.5,519.3h23.5c5.8,0,9.8,1.4,12.5,4.1,1.8,1.9,2.9,4.3,2.9,7.5h0c0,5.4-3,8.6-7.1,10.3,5.6,1.8,9.1,5,9.1,11.2h0c0,8-6.4,12.8-17.3,12.8h-23.6v-45.8ZM224,533.4c0-2.6-2-3.9-5.8-3.9h-8.3v8h8c3.9,0,6.1-1.3,6.1-4h0ZM219.6,546.5h-9.7v8.4h9.8c3.9,0,6.1-1.5,6.1-4.2h0c0-2.6-2-4.3-6.2-4.3Z"/>
    <path d="M248.6,519.3h12.7v45.8h-12.7v-45.8Z"/>
    <path d="M284.8,530.4h-13.7v-11.1h40.1v11.1h-13.7v34.7h-12.7v-34.7Z"/>
    <path d="M330.7,519h12.2l19.5,46.1h-13.6l-3.3-8.2h-17.7l-3.3,8.2h-13.3l19.4-46.1ZM341.8,547l-5.1-13-5.2,13h10.3Z"/>
    <path d="M376.1,530.4h-13.7v-11.1h40.1v11.1h-13.7v34.7h-12.7v-34.7Z"/>
    <path d="M412.3,519.3h12.7v45.8h-12.7v-45.8Z"/>
    <path d="M435.8,542.4h0c0-13.3,10.6-24,24.7-24s24.6,10.5,24.6,23.7h0c0,13.3-10.6,24-24.7,24s-24.6-10.5-24.6-23.7ZM472.1,542.4h0c0-6.8-4.7-12.5-11.7-12.5s-11.6,5.6-11.6,12.2h0c0,6.7,4.8,12.5,11.8,12.5s11.6-5.6,11.6-12.2Z"/>
    <path d="M495.6,519.3h11.8l18.8,24.2v-24.2h12.6v45.8h-11.1l-19.6-25.1v25.1h-12.6v-45.8Z"/>
    <path d="M547.5,558.3l7.1-8.4c4.6,3.6,9.6,5.5,14.9,5.5s5.3-1.2,5.3-3.1h0c0-2.1-1.5-3.1-7.8-4.6-9.8-2.2-17.3-5-17.3-14.3h0c0-8.6,6.7-14.8,17.7-14.8s13.9,2.1,18.8,6.1l-6.3,9c-4.2-3-8.8-4.5-12.8-4.5s-4.6,1.2-4.6,2.9h0c0,2.2,1.6,3.1,8,4.6,10.5,2.3,17,5.7,17,14.3h0c0,9.5-7.4,15.1-18.5,15.1s-15.8-2.6-21.5-7.6Z"/>
    <path d="M619.6,519.3h17.7c16.3,0,25.8,9.4,25.8,22.6h0c0,13.4-9.6,23.2-26,23.2h-17.5v-45.8ZM632.3,530.5v23.4h5.2c7.7,0,12.7-4.2,12.7-11.6h0c0-7.5-5-11.8-12.7-11.8h-5.2Z"/>
    <path d="M672.1,542.4h0c0-13.5,10.5-24,24.6-24s13.7,2.4,18.6,6.6l-7.5,9c-3.3-2.7-6.5-4.3-11.1-4.3-6.6,0-11.7,5.5-11.7,12.5h0c0,7.6,5.2,12.9,12.4,12.9s5.5-.7,7.3-1.9v-5.6h-9v-9.3h21v20.5c-4.8,4.1-11.5,7.1-19.9,7.1-14.3,0-24.9-9.8-24.9-23.7Z"/>
  </g>
</svg>