<?xml version="1.0" encoding="UTF-8"?>
<svg id="Layer_1" xmlns="http://www.w3.org/2000/svg" version="1.1" viewBox="0 0 24 24">
  <!-- Generator: Adobe Illustrator 30.3.0, SVG Export Plug-In . SVG Version: 2.1.3 Build 182)  -->
  <defs>
    <style>
      .st0 {
        fill: none;
        stroke: #000;
        stroke-linecap: round;
        stroke-linejoin: round;
        stroke-width: 2px;
      }
    </style>
  </defs>
  <path class="st0" d="M17.8,21v-4.7c0-.3-.3-.6-.6-.6h-2.3c-.3,0-.6.3-.6.6v4.7"/>
  <path class="st0" d="M9.8,21v-4.7c0-.3-.3-.6-.6-.6h-2.3c-.3,0-.6.3-.6.6v4.7"/>
  <path class="st0" d="M3,10c0-.6.3-1.1.7-1.5l7-6c.7-.6,1.8-.6,2.6,0l7,6c.4.4.7.9.7,1.5v9c0,1.1-.9,2-2,2H5c-1.1,0-2-.9-2-2v-9Z"/>
</svg>